<svg width="19" height="12" viewBox="0 0 19 12" fill="none" xmlns="http://www.w3.org/2000/svg">
<path d="M1.30934e-05 10.7124L0.842951 11.8729C0.90586 11.8126 0.977349 11.7562 1.05023 11.7047C1.16647 11.6219 1.30743 11.483 1.42815 11.6089C1.81391 12.0095 2.09264 11.6752 2.39069 11.4963C2.95233 11.16 3.51034 10.8183 4.05923 10.4633C4.32047 10.2937 4.56492 10.212 4.85341 10.3886C5.31283 10.6725 5.68824 10.4921 6.0857 10.2085C6.98839 9.56613 7.63878 8.71674 8.22784 7.79726C8.99045 6.60506 9.82867 5.46934 11.04 4.67815C11.7875 4.18823 12.9483 4.28405 13.4651 5.01328C14.2296 6.09576 15.2109 6.55655 16.5099 6.39389C16.7108 6.36924 16.9192 6.39041 17.1226 6.40127C17.7103 6.42954 17.991 6.15862 17.999 5.56705C18.023 4.01185 18.0534 2.46019 18.0915 0.905326C18.1059 0.328996 17.8341 0.10191 17.2714 0.101758C16.3115 0.10274 15.3486 0.0704627 14.3881 0.0503098L14.3859 0.0615724C13.6112 0.0465831 12.8318 0.0563739 12.0564 0.00855474C10.9137 -0.0604248 9.94105 0.288371 9.05933 1.01648C7.34055 2.43454 5.59132 3.81641 3.8557 5.21257C2.86794 6.00681 1.87835 6.79836 0.894234 7.59796C0.60967 7.82844 0.293601 8.16265 0.730832 8.42836C1.30373 8.77837 0.942698 8.95688 0.718824 9.23632C0.534572 9.46729 0.0941382 9.67031 0.234177 9.95159C0.445148 10.3749 0.219318 10.5302 0.000443363 10.7102L1.30934e-05 10.7124Z" fill="#D1D1D6"/>
</svg>
