<svg width="9" height="19" viewBox="0 0 9 19" fill="none" xmlns="http://www.w3.org/2000/svg">
<path d="M4.5 19C3.25133 19 2.18917 18.5622 1.3135 17.6865C0.437834 16.8108 0 15.7487 0 14.5C0 13.7385 0.176583 13.0328 0.52975 12.3828C0.883083 11.7328 1.37317 11.1949 2 10.7692V2.5C2 1.80133 2.242 1.21 2.726 0.725999C3.21 0.241999 3.80133 0 4.5 0C5.19867 0 5.79 0.241999 6.274 0.725999C6.758 1.21 7 1.80133 7 2.5V10.7692C7.62683 11.1949 8.11692 11.7328 8.47025 12.3828C8.82342 13.0328 9 13.7385 9 14.5C9 15.7487 8.56217 16.8108 7.6865 17.6865C6.81083 18.5622 5.74867 19 4.5 19ZM3.5 8.69225H5.5V7.44225H4.5V6.55775H5.5V4.44225H4.5V3.55775H5.5V2.5C5.5 2.21667 5.40417 1.97917 5.2125 1.7875C5.02083 1.59583 4.78333 1.5 4.5 1.5C4.21667 1.5 3.97917 1.59583 3.7875 1.7875C3.59583 1.97917 3.5 2.21667 3.5 2.5V8.69225Z" fill="#F0F0F0"/>
</svg>
