<svg width="20" height="20" viewBox="0 0 20 20" fill="none" xmlns="http://www.w3.org/2000/svg">
<mask id="mask0_1_1269" style="mask-type:alpha" maskUnits="userSpaceOnUse" x="0" y="0" width="20" height="20">
<rect width="20" height="20" fill="#D9D9D9"/>
</mask>
<g mask="url(#mask0_1_1269)">
<path d="M6.41837 16.25C5.68143 16.25 5.05247 15.9896 4.5315 15.4688C4.01053 14.9481 3.75004 14.3194 3.75004 13.5827C3.75004 12.8459 4.01053 12.2168 4.5315 11.6954C5.05247 11.1742 5.68143 10.9135 6.41837 10.9135H15.2484C15.9853 10.9135 16.6143 11.1739 17.1352 11.6946C17.6562 12.2154 17.9167 12.8442 17.9167 13.5808C17.9167 14.3175 17.6562 14.9465 17.1352 15.4679C16.6143 15.9893 15.9853 16.25 15.2484 16.25H6.41837ZM6.41837 15H15.2484C15.6424 15 15.9773 14.8619 16.253 14.5858C16.5288 14.3099 16.6667 13.9747 16.6667 13.5802C16.6667 13.1859 16.5288 12.8512 16.253 12.576C15.9773 12.3009 15.6424 12.1633 15.2484 12.1633H6.41837C6.02435 12.1633 5.68948 12.3014 5.41379 12.5775C5.13796 12.8536 5.00004 13.1888 5.00004 13.5831C5.00004 13.9774 5.13796 14.3122 5.41379 14.5873C5.68948 14.8624 6.02435 15 6.41837 15ZM4.75171 9.08646C4.01476 9.08646 3.3858 8.82611 2.86483 8.30542C2.34386 7.78458 2.08337 7.15583 2.08337 6.41917C2.08337 5.6825 2.34386 5.05347 2.86483 4.53208C3.3858 4.01069 4.01476 3.75 4.75171 3.75H13.5817C14.3187 3.75 14.9476 4.01042 15.4686 4.53125C15.9896 5.05194 16.25 5.68063 16.25 6.41729C16.25 7.1541 15.9896 7.78319 15.4686 8.30458C14.9476 8.82583 14.3187 9.08646 13.5817 9.08646H4.75171ZM4.74358 7.83667H13.5817C13.9757 7.83667 14.3106 7.69861 14.5863 7.4225C14.8621 7.14639 15 6.81118 15 6.41688C15 6.02257 14.8621 5.68785 14.5863 5.41271C14.3106 5.13757 13.9757 5 13.5817 5H4.74358C4.35192 5 4.01893 5.13806 3.74462 5.41417C3.47046 5.69014 3.33337 6.02535 3.33337 6.41979C3.33337 6.8141 3.47046 7.14882 3.74462 7.42396C4.01893 7.6991 4.35192 7.83667 4.74358 7.83667Z" fill="#F0F0F0"/>
</g>
</svg>
