<svg width="119" height="155" viewBox="0 0 119 155" fill="none" xmlns="http://www.w3.org/2000/svg">
<path d="M67.2571 95.0124L72.4531 92.3836C72.2519 92.0924 72.072 91.7695 71.9129 91.4441C71.6559 90.9247 71.1905 90.27 71.7728 89.8674C73.6278 88.5801 72.4678 87.247 71.9435 85.9368C70.9584 83.4685 69.9495 81.0112 68.8809 78.5818C68.3701 77.4252 68.2006 76.3927 69.0946 75.3505C70.5296 73.6925 70.0489 72.0713 69.169 70.295C67.1775 66.262 64.1932 63.1065 60.8885 60.1515C56.6027 56.3247 52.5922 52.2314 50.2037 46.8651C48.7229 43.5528 49.8569 38.9618 53.1136 37.3617C57.9461 34.9971 60.4269 31.3614 60.6142 26.0498C60.6452 25.2288 60.8647 24.4071 61.0396 23.5988C61.5326 21.2616 60.628 19.9618 58.2621 19.5476C52.0444 18.4463 45.8449 17.322 39.6375 16.1651C37.3368 15.7349 36.2511 16.6777 35.8869 18.933C35.2707 22.7809 34.5193 26.6193 33.818 30.4561L33.8618 30.472C33.3012 33.5673 32.8369 36.6977 32.1443 39.7748C31.1296 44.31 31.8992 48.4338 34.2479 52.4382C38.8212 60.2433 43.2297 68.1471 47.7043 76.0055C50.2496 80.4776 52.7828 84.9553 55.3519 89.4162C56.0918 90.7057 57.2272 92.1884 58.5746 90.6076C60.3476 88.5375 60.8298 90.0999 61.8052 91.1777C62.6119 92.0654 63.1411 93.9619 64.359 93.5823C66.1918 93.0102 66.6684 94.0156 67.2484 95.0092L67.2571 95.0124Z" fill="#374670"/>
<g style="mix-blend-mode:soft-light">
<mask id="mask0_1_622" style="mask-type:luminance" maskUnits="userSpaceOnUse" x="31" y="16" width="42" height="80">
<path d="M67.2544 95.0152L72.4504 92.3864C72.2491 92.0952 72.0693 91.7723 71.9101 91.4469C71.6532 90.9275 71.1877 90.2728 71.77 89.8702C73.625 88.5829 72.4651 87.2498 71.9407 85.9396C70.9556 83.4713 69.9467 81.014 68.8782 78.5847C68.3673 77.428 68.1978 76.3955 69.0919 75.3533C70.5268 73.6953 70.0462 72.0741 69.1662 70.2979C67.1747 66.2648 64.1905 63.1093 60.8857 60.1543C56.6 56.3275 52.5895 52.2342 50.2009 46.8679C48.7202 43.5556 49.8542 38.9646 53.1108 37.3646C57.9433 34.9999 60.4242 31.3642 60.6114 26.0526C60.6424 25.2317 60.8619 24.4099 61.0368 23.6016C61.5298 21.2644 60.6252 19.9646 58.2594 19.5504C52.0416 18.4491 45.8421 17.3248 39.6347 16.1679C37.3341 15.7377 36.2483 16.6805 35.8841 18.9358C35.268 22.7837 34.5165 26.6221 33.8152 30.4589L33.859 30.4748C33.2984 33.5701 32.8341 36.7005 32.1415 39.7776C31.1269 44.3128 31.8965 48.4367 34.2452 52.441C38.8184 60.2461 43.227 68.1499 47.7016 76.0083C50.2468 80.4804 52.7801 84.9581 55.3492 89.419C56.0891 90.7085 57.2244 92.1912 58.5719 90.6104C60.3449 88.5404 60.8271 90.1027 61.8024 91.1805C62.6092 92.0682 63.1383 93.9647 64.3562 93.5851C66.189 93.013 66.6656 94.0184 67.2456 95.012L67.2544 95.0152Z" fill="white"/>
</mask>
<g mask="url(#mask0_1_622)">
<path d="M43.4718 117.738C41.5236 117.673 33.6297 117.122 29.2102 111.047C25.4327 105.849 25.5004 98.4139 28.0742 93.0782C33.3705 82.134 46.5173 85.7047 51.688 75.2696C55.1455 68.2935 50.0365 65.1779 53.8419 53.4837C56.5912 45.0217 61.4633 39.8775 62.6715 38.6523C68.8831 32.3307 75.8785 29.93 79.3174 29.0006C82.0782 33.561 89.8635 47.7648 87.4484 66.4538C85.3632 82.5185 76.9412 92.6038 71.2739 99.3908C64.5716 107.416 55.62 118.141 43.4718 117.738Z" fill="#F7FAFC"/>
</g>
</g>
<path d="M67.2571 95.0124L72.4531 92.3836C72.2519 92.0924 72.072 91.7695 71.9129 91.4441C71.6559 90.9247 71.1905 90.27 71.7728 89.8674C73.6278 88.5801 72.4678 87.247 71.9435 85.9368C70.9584 83.4685 69.9495 81.0112 68.8809 78.5818C68.3701 77.4252 68.2006 76.3927 69.0946 75.3505C70.5296 73.6925 70.0489 72.0713 69.169 70.295C67.1775 66.262 64.1932 63.1065 60.8885 60.1515C56.6027 56.3247 52.5922 52.2314 50.2037 46.8651C48.7229 43.5528 49.8569 38.9618 53.1136 37.3617C57.9461 34.9971 60.4269 31.3614 60.6142 26.0498C60.6452 25.2288 60.8647 24.4071 61.0396 23.5988C61.5326 21.2616 60.628 19.9618 58.2621 19.5476C52.0444 18.4463 45.8449 17.322 39.6375 16.1651C37.3368 15.7349 36.2511 16.6777 35.8869 18.933C35.2707 22.7809 34.5193 26.6193 33.818 30.4561L33.8618 30.472C33.3012 33.5673 32.8369 36.6977 32.1443 39.7748C31.1296 44.31 31.8992 48.4338 34.2479 52.4382C38.8212 60.2433 43.2297 68.1471 47.7043 76.0055C50.2496 80.4776 52.7828 84.9553 55.3519 89.4162C56.0918 90.7057 57.2272 92.1884 58.5746 90.6076C60.3476 88.5375 60.8298 90.0999 61.8052 91.1777C62.6119 92.0654 63.1411 93.9619 64.359 93.5823C66.1918 93.0102 66.6684 94.0156 67.2484 95.0092L67.2571 95.0124Z" stroke="#313131" stroke-width="0.931115" stroke-miterlimit="10"/>
<path d="M51.3182 6.57759C53.836 7.03717 56.3594 7.50869 58.8868 7.94202C60.5112 8.21553 61.17 9.12871 60.8527 10.7372C60.8217 10.9043 60.8026 11.0658 60.7748 11.2241C59.0915 19.9151 60.5829 18.4561 52.541 17.1672C49.0304 16.6043 45.5556 15.8067 42.0402 15.3115C39.8454 14.999 39.251 13.9904 39.7687 11.9395C40.1711 10.3421 40.4041 8.693 40.6895 7.06298C40.975 5.43297 41.8953 4.83626 43.5158 5.14795C46.1179 5.6481 48.7185 6.09813 51.327 6.58077L51.3182 6.57759Z" fill="#374670" stroke="#313131" stroke-width="1.06054"/>
<path d="M40.0058 28.7519C40.5937 28.6882 41.2285 28.6316 41.8458 28.5687C42.8648 28.4636 43.8839 28.3585 44.9005 28.2328C45.2641 28.1866 45.3611 28.3011 45.284 28.6496C45.1353 29.3584 45.016 30.068 44.8848 30.7832C44.8506 30.959 44.7981 31.1578 44.9803 31.2835C45.1593 31.4179 45.3248 31.2899 45.4775 31.1968C48.3515 29.5864 51.2255 27.9761 54.1083 26.3689C54.2698 26.279 54.452 26.1867 54.3756 25.9608C54.2992 25.7349 54.0979 25.7707 53.9118 25.7922C52.3375 25.953 50.7664 26.1051 49.2 26.2985C48.7864 26.3463 48.7036 26.2469 48.7879 25.8515C48.9382 25.1928 49.0448 24.5182 49.1569 23.8555C49.1919 23.6503 49.2778 23.414 49.0757 23.2613C48.8593 23.0935 48.6716 23.2828 48.4982 23.3783C46.1865 24.668 43.8717 25.9665 41.5689 27.2594C41.0065 27.58 40.4385 27.8887 39.8761 28.2093C39.7385 28.2881 39.6096 28.3701 39.6693 28.5602C39.7099 28.6938 39.8236 28.7352 39.9883 28.7455L40.0058 28.7519Z" fill="#313131"/>
<path fill-rule="evenodd" clip-rule="evenodd" d="M68.7414 97.0451C67.645 97.8848 67.437 99.4542 68.2767 100.551C73.6548 107.572 82.4865 127.246 74.0155 148.701C73.5084 149.985 74.1385 151.438 75.423 151.945C76.7074 152.452 78.1598 151.822 78.6669 150.537C87.9749 126.963 78.3296 105.452 72.2468 97.5098C71.4072 96.4135 69.8377 96.2054 68.7414 97.0451Z" fill="#374670"/>
<path d="M70.706 81.7208C72.4795 85.0999 74.2442 88.4759 76.0177 91.8551C77.7291 94.6964 76.8536 98.4402 74.0535 100.256L71.1096 102.168C68.2944 103.998 64.569 103.208 62.7773 100.397C60.2457 96.95 57.7197 93.5153 55.1881 90.0686C60.3618 87.2831 65.5323 84.5063 70.706 81.7208Z" fill="#313131"/>
<path d="M73.1212 103.764C77.0997 109.716 84.3086 127.81 76.708 149.556" stroke="#374670" stroke-width="2" stroke-linecap="round"/>
</svg>
