<svg width="40" height="21" viewBox="0 0 40 21" fill="none" xmlns="http://www.w3.org/2000/svg">
<path d="M19.8708 3.781L19.0928 3.781L18.968 0.591249L19.9956 0.591249L19.8708 3.781Z" fill="#D64336"/>
<path d="M17.9335 3.84556L17.4784 4.25093L15.372 2.47663L15.9665 1.93836L17.9335 3.84556Z" fill="#D64336"/>
<path d="M21.6033 4.2527L21.1555 3.84734L23.1152 1.94678L23.7024 2.48505L21.6033 4.2527Z" fill="#D64336"/>
<path d="M19.8708 17.5577L19.0928 17.5577L18.968 20.7474L19.9956 20.7474L19.8708 17.5577Z" fill="#D64336"/>
<path d="M17.9335 17.4931L17.4784 17.0878L15.372 18.8621L15.9665 19.4003L17.9335 17.4931Z" fill="#D64336"/>
<path d="M21.6033 17.086L21.1555 17.4913L23.1152 19.3919L23.7024 18.8536L21.6033 17.086Z" fill="#D64336"/>
<path d="M38.8511 16.474C38.851 17.3006 38.1809 17.9708 37.3543 17.9708L30.9051 17.9708C30.8567 17.998 30.7981 18.0136 30.7347 18.0136L24.0372 18.0136L20.5265 16.8049L24.272 14.6821L24.272 14.62L20.0006 12.602L24.272 10.3135L24.272 10.0869L20.992 8.22408L24.1742 5.45771L24.272 5.45771L24.272 5.38275L37.3543 5.38275C38.1809 5.38276 38.8511 6.05289 38.8511 6.87955L38.8511 16.474Z" fill="#D64336"/>
<path d="M1.09393 6.92168C1.09405 6.09513 1.76414 5.4249 2.59073 5.42489L9.51486 5.42489C9.56322 5.39771 9.62187 5.38216 9.68527 5.38214L16.3828 5.38214L20.9715 6.2705L16.1485 8.71714L16.1485 8.77862L19.9426 10.7339L16.1485 13.0564L16.1485 13.3428L19.0086 15.4041L16.2452 17.938L16.1485 17.938L16.1485 18.013L2.59073 18.013C1.76408 18.0129 1.09394 17.3428 1.09393 16.5162L1.09393 6.92168Z" fill="#D64336"/>
<circle cx="4.6485" cy="11.4775" r="1.66779" fill="#202A21"/>
<circle cx="34.5469" cy="11.4775" r="1.66779" fill="#202A21"/>
</svg>
