<svg width="17" height="39" viewBox="0 0 17 39" fill="none" xmlns="http://www.w3.org/2000/svg">
<rect x="2.0051" y="18.6396" width="12.7155" height="1.51252" fill="#18871E"/>
<path d="M16.3838 20.0884C16.5912 20.0884 16.759 20.2523 16.7676 20.4576H16.7695C16.7695 20.4602 16.7686 20.4628 16.7686 20.4654C16.7686 20.4682 16.7695 20.4713 16.7695 20.4742H16.7676C16.7587 20.6793 16.5911 20.8433 16.3838 20.8433H14.7148L14.7148 36.7339C14.7146 37.5604 14.0443 38.23 13.2178 38.23H3.62402C2.7975 38.23 2.12718 37.5604 2.12695 36.7339L2.12695 20.8433H0.385742C0.178476 20.8433 0.0107901 20.6793 0.00195313 20.4742H0L0 20.4576H0.00195313C0.0105746 20.2523 0.178333 20.0884 0.385742 20.0884L16.3838 20.0884Z" fill="#1BC924"/>
<path d="M0.387787 18.6619C0.180376 18.6619 0.0126152 18.4981 0.00399777 18.2928L0.00204465 18.2928C0.00204655 18.2902 0.0029678 18.2876 0.00302121 18.285C0.00295826 18.2821 0.00204464 18.2791 0.00204464 18.2762L0.00399777 18.2762C0.0128307 18.0711 0.180519 17.907 0.387787 17.907L2.05673 17.907L2.05673 2.04572C2.05695 1.21924 2.72727 0.549623 3.5538 0.549623L13.1476 0.549622C13.9741 0.549622 14.6444 1.21924 14.6446 2.04572L14.6446 17.907L16.3858 17.907C16.5931 17.907 16.7608 18.0711 16.7696 18.2762L16.7716 18.2762L16.7716 18.2928L16.7696 18.2928C16.761 18.4981 16.5932 18.6619 16.3858 18.6619L0.387787 18.6619Z" fill="#1BC924"/>
<circle cx="8.28391" cy="34.1522" r="1.66779" transform="rotate(-90 8.28391 34.1522)" fill="#202A21"/>
<circle cx="8.28391" cy="4.25378" r="1.66779" transform="rotate(-90 8.28391 4.25378)" fill="#202A21"/>
</svg>
