<svg width="115" height="155" viewBox="0 0 115 155" fill="none" xmlns="http://www.w3.org/2000/svg">
<path d="M51.0433 95.0124L45.8473 92.3836C46.0486 92.0924 46.2284 91.7695 46.3875 91.4441C46.6445 90.9247 47.11 90.27 46.5277 89.8674C44.6727 88.5801 45.8326 87.247 46.357 85.9368C47.342 83.4685 48.351 81.0112 49.4195 78.5818C49.9304 77.4252 50.0999 76.3927 49.2058 75.3505C47.7709 73.6925 48.2515 72.0713 49.1315 70.295C51.123 66.262 54.1072 63.1065 57.412 60.1515C61.6977 56.3247 65.7082 52.2314 68.0968 46.8651C69.5775 43.5528 68.4435 38.9618 65.1869 37.3617C60.3544 34.9971 57.8735 31.3614 57.6862 26.0498C57.6553 25.2288 57.4358 24.4071 57.2609 23.5988C56.7679 21.2616 57.6725 19.9618 60.0383 19.5476C66.2561 18.4463 72.4556 17.322 78.663 16.1651C80.9636 15.7349 82.0494 16.6777 82.4135 18.933C83.0297 22.7809 83.7811 26.6193 84.4824 30.4561L84.4387 30.472C84.9993 33.5673 85.4636 36.6977 86.1562 39.7748C87.1708 44.31 86.4012 48.4338 84.0525 52.4382C79.4793 60.2433 75.0707 68.1471 70.5961 76.0055C68.0509 80.4776 65.5176 84.9553 62.9485 89.4162C62.2086 90.7057 61.0733 92.1884 59.7258 90.6076C57.9528 88.5375 57.4706 90.0999 56.4952 91.1777C55.6885 92.0654 55.1594 93.9619 53.9415 93.5823C52.1087 93.0102 51.6321 94.0156 51.0521 95.0092L51.0433 95.0124Z" fill="#46EB4F"/>
<g style="mix-blend-mode:soft-light">
<mask id="mask0_1_636" style="mask-type:luminance" maskUnits="userSpaceOnUse" x="45" y="16" width="42" height="80">
<path d="M51.0461 95.0152L45.8501 92.3864C46.0514 92.0952 46.2312 91.7723 46.3903 91.4469C46.6473 90.9275 47.1127 90.2728 46.5304 89.8702C44.6754 88.5829 45.8354 87.2498 46.3597 85.9396C47.3448 83.4713 48.3537 81.014 49.4223 78.5847C49.9331 77.428 50.1026 76.3955 49.2086 75.3533C47.7736 73.6953 48.2543 72.0741 49.1342 70.2979C51.1257 66.2648 54.11 63.1093 57.4147 60.1543C61.7005 56.3275 65.711 52.2342 68.0995 46.8679C69.5803 43.5556 68.4463 38.9646 65.1896 37.3646C60.3571 34.9999 57.8763 31.3642 57.689 26.0526C57.658 25.2317 57.4385 24.4099 57.2636 23.6016C56.7706 21.2644 57.6752 19.9646 60.0411 19.5504C66.2588 18.4491 72.4583 17.3248 78.6657 16.1679C80.9664 15.7377 82.0521 16.6805 82.4163 18.9358C83.0325 22.7837 83.7839 26.6221 84.4852 30.4589L84.4414 30.4748C85.002 33.5701 85.4663 36.7005 86.1589 39.7776C87.1736 44.3128 86.404 48.4367 84.0553 52.441C79.482 60.2461 75.0735 68.1499 70.5989 76.0083C68.0536 80.4804 65.5204 84.9581 62.9513 89.419C62.2114 90.7085 61.076 92.1912 59.7286 90.6104C57.9556 88.5404 57.4734 90.1027 56.498 91.1805C55.6913 92.0682 55.1621 93.9647 53.9442 93.5851C52.1114 93.013 51.6348 94.0184 51.0548 95.012L51.0461 95.0152Z" fill="white"/>
</mask>
<g mask="url(#mask0_1_636)">
<path d="M74.8287 117.738C76.7769 117.673 84.6707 117.122 89.0903 111.047C92.8678 105.849 92.8 98.4139 90.2262 93.0782C84.9299 82.134 71.7831 85.7047 66.6124 75.2696C63.155 68.2935 68.264 65.1779 64.4585 53.4837C61.7092 45.0217 56.8372 39.8775 55.6289 38.6523C49.4174 32.3307 42.4219 29.93 38.983 29.0006C36.2222 33.561 28.4369 47.7648 30.8521 66.4538C32.9373 82.5185 41.3592 92.6038 47.0266 99.3908C53.7288 107.416 62.6805 118.141 74.8287 117.738Z" fill="#F7FAFC"/>
</g>
</g>
<path d="M51.0433 95.0124L45.8473 92.3836C46.0486 92.0924 46.2284 91.7695 46.3875 91.4441C46.6445 90.9247 47.11 90.27 46.5277 89.8674C44.6727 88.5801 45.8326 87.247 46.357 85.9368C47.342 83.4685 48.351 81.0112 49.4195 78.5818C49.9304 77.4252 50.0999 76.3927 49.2058 75.3505C47.7709 73.6925 48.2515 72.0713 49.1315 70.295C51.123 66.262 54.1072 63.1065 57.412 60.1515C61.6977 56.3247 65.7082 52.2314 68.0968 46.8651C69.5775 43.5528 68.4435 38.9618 65.1869 37.3617C60.3544 34.9971 57.8735 31.3614 57.6862 26.0498C57.6553 25.2288 57.4358 24.4071 57.2609 23.5988C56.7679 21.2616 57.6725 19.9618 60.0383 19.5476C66.2561 18.4463 72.4556 17.322 78.663 16.1651C80.9636 15.7349 82.0494 16.6777 82.4135 18.933C83.0297 22.7809 83.7811 26.6193 84.4824 30.4561L84.4387 30.472C84.9993 33.5673 85.4636 36.6977 86.1562 39.7748C87.1708 44.31 86.4012 48.4338 84.0525 52.4382C79.4793 60.2433 75.0707 68.1471 70.5961 76.0055C68.0509 80.4776 65.5176 84.9553 62.9485 89.4162C62.2086 90.7057 61.0733 92.1884 59.7258 90.6076C57.9528 88.5375 57.4706 90.0999 56.4952 91.1777C55.6885 92.0654 55.1594 93.9619 53.9415 93.5823C52.1087 93.0102 51.6321 94.0156 51.0521 95.0092L51.0433 95.0124Z" stroke="#313131" stroke-width="0.931115" stroke-miterlimit="10"/>
<path d="M66.9822 6.57759C64.4644 7.03717 61.941 7.50869 59.4137 7.94202C57.7892 8.21553 57.1305 9.12871 57.4478 10.7372C57.4788 10.9043 57.4978 11.0658 57.5257 11.2241C59.209 19.9151 57.7176 18.4561 65.7594 17.1672C69.27 16.6043 72.7449 15.8067 76.2603 15.3115C78.4551 14.999 79.0494 13.9904 78.5317 11.9395C78.1293 10.3421 77.8964 8.693 77.6109 7.06298C77.3255 5.43297 76.4052 4.83626 74.7847 5.14795C72.1825 5.6481 69.582 6.09813 66.9735 6.58077L66.9822 6.57759Z" fill="#46EB4F" stroke="#313131" stroke-width="1.06054"/>
<path d="M78.2947 28.7519C77.7068 28.6882 77.072 28.6316 76.4547 28.5687C75.4356 28.4636 74.4166 28.3585 73.4 28.2328C73.0364 28.1866 72.9394 28.3011 73.0165 28.6496C73.1652 29.3584 73.2844 30.068 73.4156 30.7832C73.4498 30.959 73.5023 31.1578 73.3201 31.2835C73.1411 31.4179 72.9757 31.2899 72.823 31.1968C69.9489 29.5864 67.0749 27.9761 64.1922 26.3689C64.0307 26.279 63.8485 26.1867 63.9249 25.9608C64.0013 25.7349 64.2025 25.7707 64.3887 25.7922C65.963 25.953 67.5341 26.1051 69.1004 26.2985C69.5141 26.3463 69.5968 26.2469 69.5125 25.8515C69.3622 25.1928 69.2557 24.5182 69.1436 23.8555C69.1086 23.6503 69.0227 23.414 69.2248 23.2613C69.4412 23.0935 69.6289 23.2828 69.8023 23.3783C72.1139 24.668 74.4287 25.9665 76.7316 27.2594C77.294 27.58 77.862 27.8887 78.4244 28.2093C78.562 28.2881 78.6909 28.3701 78.6312 28.5602C78.5906 28.6938 78.4768 28.7352 78.3122 28.7455L78.2947 28.7519Z" fill="#313131"/>
<path fill-rule="evenodd" clip-rule="evenodd" d="M49.5591 97.0451C50.6554 97.8848 50.8634 99.4542 50.0237 100.551C44.6457 107.572 35.814 127.246 44.2849 148.701C44.792 149.985 44.1619 151.438 42.8774 151.945C41.593 152.452 40.1406 151.822 39.6335 150.537C30.3255 126.963 39.9708 105.452 46.0536 97.5098C46.8933 96.4135 48.4627 96.2054 49.5591 97.0451Z" fill="#46EB4F"/>
<path d="M47.5944 81.7208C45.8209 85.0999 44.0562 88.4759 42.2827 91.8551C40.5713 94.6964 41.4469 98.4402 44.2469 100.256L47.1909 102.168C50.006 103.998 53.7314 103.208 55.5232 100.397C58.0548 96.95 60.5808 93.5153 63.1124 90.0686C57.9387 87.2831 52.7681 84.5063 47.5944 81.7208Z" fill="#313131"/>
<path d="M45.1793 103.764C41.2008 109.716 33.9918 127.81 41.5924 149.556" stroke="#46EB4F" stroke-width="2" stroke-linecap="round"/>
<path d="M82.2157 122.564C82.8317 122.564 83.3277 122.624 83.7037 122.744C84.0797 122.856 84.3557 123.052 84.5317 123.332C84.7077 123.612 84.7957 123.996 84.7957 124.484C84.7957 124.844 84.7597 125.172 84.6877 125.468C84.6157 125.756 84.4917 125.996 84.3157 126.188C84.1477 126.38 83.8997 126.508 83.5717 126.572V126.62C84.1237 126.708 84.4997 126.932 84.6997 127.292C84.9077 127.652 85.0157 128.12 85.0237 128.696C85.0317 129.256 84.9477 129.72 84.7717 130.088C84.6037 130.448 84.3237 130.716 83.9317 130.892C83.5477 131.068 83.0197 131.156 82.3477 131.156C81.9077 131.156 81.4597 131.132 81.0037 131.084C80.5557 131.044 80.1157 130.996 79.6837 130.94L79.7557 129.992C80.0357 130.016 80.2997 130.04 80.5477 130.064C80.8037 130.08 81.0517 130.092 81.2917 130.1C81.5397 130.108 81.7917 130.112 82.0477 130.112C82.4797 130.112 82.8237 130.064 83.0797 129.968C83.3437 129.872 83.5357 129.712 83.6557 129.488C83.7757 129.256 83.8357 128.948 83.8357 128.564C83.8357 128.268 83.7957 128.012 83.7157 127.796C83.6357 127.58 83.4797 127.412 83.2477 127.292C83.0237 127.164 82.6957 127.1 82.2637 127.1L80.7157 127.112V126.212H82.2637C82.5757 126.212 82.8237 126.172 83.0077 126.092C83.1997 126.004 83.3397 125.896 83.4277 125.768C83.5237 125.632 83.5837 125.48 83.6077 125.312C83.6397 125.136 83.6557 124.956 83.6557 124.772C83.6477 124.436 83.5917 124.184 83.4877 124.016C83.3917 123.848 83.2277 123.736 82.9957 123.68C82.7637 123.624 82.4437 123.596 82.0357 123.596C81.6357 123.596 81.2517 123.608 80.8837 123.632C80.5157 123.648 80.1917 123.664 79.9117 123.68L79.8277 122.78C80.2437 122.708 80.6477 122.656 81.0397 122.624C81.4317 122.584 81.8237 122.564 82.2157 122.564ZM89.1111 122.576C89.7191 122.576 90.2071 122.648 90.5751 122.792C90.9431 122.928 91.2231 123.156 91.4151 123.476C91.6071 123.788 91.7311 124.216 91.7871 124.76C91.8511 125.296 91.8831 125.964 91.8831 126.764C91.8831 127.692 91.8231 128.444 91.7031 129.02C91.5831 129.596 91.3951 130.04 91.1391 130.352C90.8831 130.656 90.5471 130.864 90.1311 130.976C89.7231 131.088 89.2231 131.144 88.6311 131.144C88.4471 131.144 88.1911 131.136 87.8631 131.12C87.5351 131.104 87.1751 131.048 86.7831 130.952L86.8791 130.1C87.0791 130.116 87.2551 130.128 87.4071 130.136C87.5671 130.144 87.7391 130.148 87.9231 130.148C88.1151 130.148 88.3511 130.148 88.6311 130.148C89.0391 130.148 89.3751 130.1 89.6391 130.004C89.9111 129.908 90.1271 129.736 90.2871 129.488C90.4471 129.24 90.5591 128.896 90.6231 128.456C90.6951 128.008 90.7311 127.432 90.7311 126.728C90.7311 126.112 90.7151 125.6 90.6831 125.192C90.6591 124.784 90.5991 124.46 90.5031 124.22C90.4071 123.98 90.2471 123.812 90.0231 123.716C89.7991 123.612 89.4911 123.56 89.0991 123.56C88.6591 123.56 88.3271 123.632 88.1031 123.776C87.8791 123.92 87.7311 124.132 87.6591 124.412C87.5871 124.692 87.5511 125.032 87.5511 125.432C87.5511 125.824 87.5911 126.152 87.6711 126.416C87.7511 126.672 87.8951 126.868 88.1031 127.004C88.3191 127.14 88.6151 127.208 88.9911 127.208C89.2471 127.208 89.4791 127.176 89.6871 127.112C89.9031 127.04 90.1231 126.928 90.3471 126.776C90.5791 126.616 90.8471 126.396 91.1511 126.116L91.1991 126.668C90.9431 127.044 90.6911 127.34 90.4431 127.556C90.2031 127.764 89.9431 127.912 89.6631 128C89.3831 128.088 89.0511 128.132 88.6671 128.132C88.0911 128.132 87.6391 128.016 87.3111 127.784C86.9831 127.552 86.7471 127.236 86.6031 126.836C86.4671 126.428 86.3991 125.964 86.3991 125.444C86.3991 124.804 86.4831 124.272 86.6511 123.848C86.8191 123.424 87.0991 123.108 87.4911 122.9C87.8911 122.684 88.4311 122.576 89.1111 122.576ZM94.8375 122.564C95.1255 122.564 95.3855 122.632 95.6175 122.768C95.8575 122.904 96.0455 123.092 96.1815 123.332C96.3255 123.564 96.3975 123.82 96.3975 124.1C96.3975 124.38 96.3255 124.64 96.1815 124.88C96.0455 125.112 95.8575 125.3 95.6175 125.444C95.3855 125.58 95.1255 125.648 94.8375 125.648C94.5575 125.648 94.2935 125.58 94.0455 125.444C93.8055 125.3 93.6135 125.112 93.4695 124.88C93.3335 124.64 93.2655 124.38 93.2655 124.1C93.2655 123.82 93.3335 123.564 93.4695 123.332C93.6135 123.1 93.8055 122.916 94.0455 122.78C94.2855 122.636 94.5495 122.564 94.8375 122.564ZM94.8375 123.224C94.5975 123.224 94.3895 123.308 94.2135 123.476C94.0455 123.636 93.9615 123.844 93.9615 124.1C93.9615 124.26 94.0015 124.408 94.0815 124.544C94.1615 124.68 94.2655 124.788 94.3935 124.868C94.5295 124.948 94.6775 124.988 94.8375 124.988C94.9975 124.988 95.1415 124.948 95.2695 124.868C95.4055 124.788 95.5135 124.68 95.5935 124.544C95.6735 124.408 95.7135 124.26 95.7135 124.1C95.7135 123.844 95.6255 123.636 95.4495 123.476C95.2815 123.308 95.0775 123.224 94.8375 123.224Z" fill="#FEC932"/>
<path d="M101.939 123.98C102.232 123.98 102.482 123.987 102.689 124C102.902 124.013 103.096 124.037 103.269 124.07C103.449 124.097 103.632 124.133 103.819 124.18L103.729 124.85C103.529 124.83 103.342 124.813 103.169 124.8C103.002 124.787 102.822 124.777 102.629 124.77C102.436 124.763 102.206 124.76 101.939 124.76C101.492 124.76 101.139 124.847 100.879 125.02C100.619 125.193 100.432 125.483 100.319 125.89C100.212 126.297 100.159 126.85 100.159 127.55C100.159 128.25 100.212 128.803 100.319 129.21C100.432 129.617 100.619 129.907 100.879 130.08C101.139 130.253 101.492 130.34 101.939 130.34C102.366 130.34 102.722 130.333 103.009 130.32C103.302 130.3 103.589 130.27 103.869 130.23L103.959 130.89C103.672 130.97 103.376 131.027 103.069 131.06C102.769 131.1 102.392 131.12 101.939 131.12C101.279 131.12 100.749 131.007 100.349 130.78C99.9555 130.547 99.6689 130.17 99.4889 129.65C99.3155 129.13 99.2289 128.43 99.2289 127.55C99.2289 126.67 99.3155 125.97 99.4889 125.45C99.6689 124.93 99.9555 124.557 100.349 124.33C100.749 124.097 101.279 123.98 101.939 123.98Z" fill="#AEAEAE"/>
<mask id="mask1_1_636" style="mask-type:alpha" maskUnits="userSpaceOnUse" x="56" y="117" width="21" height="20">
<rect x="56.9997" y="117" width="20" height="20" fill="#D9D9D9"/>
</mask>
<g mask="url(#mask1_1_636)">
<path d="M66.9997 134.917C65.9592 134.917 65.074 134.552 64.3443 133.822C63.6146 133.092 63.2497 132.207 63.2497 131.167C63.2497 130.532 63.3969 129.944 63.6912 129.402C63.9856 128.861 64.394 128.412 64.9164 128.058V121.167C64.9164 120.584 65.1181 120.092 65.5214 119.688C65.9247 119.285 66.4175 119.083 66.9997 119.083C67.5819 119.083 68.0747 119.285 68.4781 119.688C68.8814 120.092 69.0831 120.584 69.0831 121.167V128.058C69.6054 128.412 70.0138 128.861 70.3083 129.402C70.6026 129.944 70.7497 130.532 70.7497 131.167C70.7497 132.207 70.3849 133.092 69.6551 133.822C68.9254 134.552 68.0403 134.917 66.9997 134.917ZM66.1664 126.327H67.8331V125.285H66.9997V124.548H67.8331V122.785H66.9997V122.048H67.8331V121.167C67.8331 120.931 67.7532 120.733 67.5935 120.573C67.4337 120.413 67.2358 120.333 66.9997 120.333C66.7636 120.333 66.5657 120.413 66.406 120.573C66.2462 120.733 66.1664 120.931 66.1664 121.167V126.327Z" fill="#FEC932"/>
</g>
</svg>
