<svg width="28" height="38" viewBox="0 0 28 38" fill="none" xmlns="http://www.w3.org/2000/svg">
<path d="M2.50012 37.4492V29.0492H3.70012V36.5012H7.54012V37.4492H2.50012ZM8.41687 37.4492L11.5129 29.0492H12.8209L15.8929 37.4492H14.6209L12.1489 30.4892L9.67687 37.4492H8.41687ZM9.82087 35.3732L10.1449 34.4132H14.1049L14.4289 35.3732H9.82087ZM17.1134 37.4492V29.0492H18.3134L22.5974 35.4932V29.0492H23.7974V37.4492H22.5974L18.3134 31.0052V37.4492H17.1134Z" fill="#3E4D6A"/>
<path fill-rule="evenodd" clip-rule="evenodd" d="M23.5619 7.72288L23.5111 7.7226H2.79962V18.6908H6.71077V21.9468H11.0409V23.5019H15.3206V21.9468L15.3333 21.9465L15.3592 21.9468H19.646V18.6908H23.5619V7.72288ZM8.19886 10.418L8.19915 10.41L8.19886 10.3982H6.99146V13.0459H8.19886V10.418ZM9.70877 13.0459V10.3982H10.9165V13.0459H9.70877ZM13.9357 10.3982H12.4261V13.0459H13.9357V10.3982ZM15.4453 10.3982H16.653V13.0459H15.4453V10.3982ZM19.3703 10.3982H18.1626V13.0459H19.3703V10.3982Z" fill="#3E4D6A"/>
<path d="M1 1L26.2266 26.2251" stroke="#3E4D6A" stroke-width="2" stroke-linecap="round"/>
</svg>
