<svg width="211" height="55" viewBox="0 0 211 55" fill="none" xmlns="http://www.w3.org/2000/svg">
<rect width="211" height="55" rx="12" fill="#141824"/>
<mask id="mask0_1_681" style="mask-type:alpha" maskUnits="userSpaceOnUse" x="5" y="13" width="28" height="28">
<rect x="5" y="13.3668" width="27.6123" height="27.6123" fill="#212840"/>
</mask>
<g mask="url(#mask0_1_681)">
<path d="M13.4583 29.0753H15.875V24.242H13.4583V29.0753ZM18.2917 33.9086H20.7083V32.7003C20.7083 32.3378 20.5976 32.0458 20.376 31.8243C20.1545 31.6027 19.8625 31.492 19.5 31.492C19.1375 31.492 18.8455 31.6027 18.6239 31.8243C18.4024 32.0458 18.2917 32.3378 18.2917 32.7003V33.9086ZM23.125 29.0753H25.5417V24.242H23.125V29.0753ZM19.5 39.9503C17.8285 39.9503 16.2576 39.6331 14.7875 38.9987C13.3174 38.3644 12.0385 37.5034 10.951 36.4159C9.86353 35.3284 9.00259 34.0496 8.36822 32.5795C7.73384 31.1093 7.41666 29.5385 7.41666 27.867C7.41666 26.1954 7.73384 24.6246 8.36822 23.1545C9.00259 21.6843 9.86353 20.4055 10.951 19.318C12.0385 18.2305 13.3174 17.3696 14.7875 16.7352C16.2576 16.1008 17.8285 15.7836 19.5 15.7836C21.1715 15.7836 22.7424 16.1008 24.2125 16.7352C25.6826 17.3696 26.9614 18.2305 28.0489 19.318C29.1364 20.4055 29.9974 21.6843 30.6318 23.1545C31.2661 24.6246 31.5833 26.1954 31.5833 27.867C31.5833 29.5385 31.2661 31.1093 30.6318 32.5795C29.9974 34.0496 29.1364 35.3284 28.0489 36.4159C26.9614 37.5034 25.6826 38.3644 24.2125 38.9987C22.7424 39.6331 21.1715 39.9503 19.5 39.9503Z" fill="#212840"/>
</g>
<rect x="174.819" y="8" width="12.5724" height="38.5553" rx="1.75111" fill="#212840"/>
<circle cx="181.007" cy="16.7564" r="2.5557" fill="#555E7B"/>
<circle cx="181.007" cy="37.8998" r="2.5557" fill="#555E7B"/>
<rect x="190.426" y="8" width="12.5724" height="38.5553" rx="1.75111" fill="#212840"/>
<circle cx="196.614" cy="16.7564" r="2.5557" fill="#555E7B"/>
<circle cx="196.614" cy="37.8998" r="2.5557" fill="#555E7B"/>
<rect x="159.213" y="8" width="12.5724" height="38.5553" rx="1.75111" fill="#212840"/>
<circle cx="165.401" cy="16.7564" r="2.5557" fill="#555E7B"/>
<circle cx="165.401" cy="37.8998" r="2.5557" fill="#555E7B"/>
<rect x="143.606" y="8" width="12.5724" height="38.5553" rx="1.75111" fill="#212840"/>
<circle cx="149.794" cy="16.7564" r="2.5557" fill="#555E7B"/>
<circle cx="149.794" cy="37.8998" r="2.5557" fill="#555E7B"/>
<rect x="128" y="8" width="12.5724" height="38.5553" rx="1.75111" fill="#212840"/>
<circle cx="134.188" cy="16.7564" r="2.5557" fill="#555E7B"/>
<circle cx="134.188" cy="37.8998" r="2.5557" fill="#555E7B"/>
</svg>
