<svg width="21" height="36" viewBox="0 0 21 36" fill="none" xmlns="http://www.w3.org/2000/svg">
<path d="M3.636 35.4487C3.028 35.4487 2.492 35.3407 2.028 35.1247C1.564 34.9007 1.204 34.5887 0.948 34.1887C0.692 33.7887 0.56 33.3207 0.552 32.7847H1.824C1.824 33.0887 1.892 33.3687 2.028 33.6247C2.172 33.8727 2.376 34.0727 2.64 34.2247C2.912 34.3687 3.244 34.4407 3.636 34.4407C3.972 34.4407 4.26 34.3847 4.5 34.2727C4.748 34.1607 4.936 34.0087 5.064 33.8167C5.192 33.6167 5.256 33.3887 5.256 33.1327C5.256 32.8447 5.192 32.6087 5.064 32.4247C4.936 32.2327 4.756 32.0727 4.524 31.9447C4.3 31.8167 4.04 31.7047 3.744 31.6087C3.456 31.5127 3.144 31.4087 2.808 31.2967C2.128 31.0727 1.624 30.7887 1.296 30.4447C0.976 30.1007 0.816 29.6527 0.816 29.1007C0.816 28.6287 0.924 28.2207 1.14 27.8767C1.364 27.5247 1.68 27.2527 2.088 27.0607C2.496 26.8607 2.972 26.7607 3.516 26.7607C4.068 26.7607 4.544 26.8607 4.944 27.0607C5.352 27.2607 5.672 27.5367 5.904 27.8887C6.136 28.2407 6.256 28.6527 6.264 29.1247H4.992C4.992 28.9087 4.932 28.6967 4.812 28.4887C4.7 28.2807 4.532 28.1127 4.308 27.9847C4.092 27.8487 3.82 27.7807 3.492 27.7807C3.212 27.7727 2.964 27.8167 2.748 27.9127C2.532 28.0087 2.364 28.1487 2.244 28.3327C2.124 28.5167 2.064 28.7367 2.064 28.9927C2.064 29.2487 2.12 29.4567 2.232 29.6167C2.344 29.7687 2.5 29.9007 2.7 30.0127C2.908 30.1247 3.152 30.2287 3.432 30.3247C3.712 30.4127 4.02 30.5127 4.356 30.6247C4.764 30.7607 5.132 30.9287 5.46 31.1287C5.788 31.3207 6.044 31.5727 6.228 31.8847C6.42 32.1887 6.516 32.5807 6.516 33.0607C6.516 33.4767 6.408 33.8647 6.192 34.2247C5.976 34.5847 5.656 34.8807 5.232 35.1127C4.808 35.3367 4.276 35.4487 3.636 35.4487ZM7.96613 35.3047V26.9047H9.16613V35.3047H7.96613ZM10.9427 35.3047V26.9047H12.3587L15.1547 32.5927L17.9387 26.9047H19.3547V35.3047H18.1547V29.0167L15.6107 34.1527H14.6867L12.1427 29.0407V35.3047H10.9427Z" fill="#3E4D6A"/>
<mask id="mask0_648_259" style="mask-type:alpha" maskUnits="userSpaceOnUse" x="-2" y="0" width="25" height="25">
<rect x="-1.43652" y="0.242188" width="24.1641" height="24.1641" fill="#D9D9D9"/>
</mask>
<g mask="url(#mask0_648_259)">
<path d="M5.86646 19.177H7.37671V17.4538H5.86646V19.177ZM5.86646 15.2464H7.37671V11.5095H5.86646V15.2464ZM9.8938 19.177H11.4041V15.4402H9.8938V19.177ZM9.8938 13.2327H11.4041V11.5095H9.8938V13.2327ZM13.9211 19.177H15.4314V17.4538H13.9211V19.177ZM13.9211 15.2464H15.4314V11.5095H13.9211V15.2464ZM4.91776 21.8877C4.40914 21.8877 3.97864 21.7115 3.62625 21.3591C3.27385 21.0067 3.09766 20.5762 3.09766 20.0676V8.50836L8.8482 2.75781H16.3801C16.8887 2.75781 17.3192 2.93401 17.6716 3.2864C18.024 3.63879 18.2002 4.0693 18.2002 4.57792V20.0676C18.2002 20.5762 18.024 21.0067 17.6716 21.3591C17.3192 21.7115 16.8887 21.8877 16.3801 21.8877H4.91776Z" fill="#3E4D6A"/>
</g>
</svg>
