<svg width="7" height="14" viewBox="0 0 7 14" fill="none" xmlns="http://www.w3.org/2000/svg">
<path d="M3.1875 13.4583C2.30303 13.4583 1.55066 13.1482 0.930396 12.5279C0.310132 11.9077 0 11.1553 0 10.2708C0 9.73144 0.12508 9.23153 0.37524 8.77111C0.625517 8.3107 0.97266 7.92973 1.41667 7.62822V1.77083C1.41667 1.27594 1.58808 0.857083 1.93092 0.51425C2.27375 0.171416 2.69261 0 3.1875 0C3.68239 0 4.10125 0.171416 4.44408 0.51425C4.78692 0.857083 4.95833 1.27594 4.95833 1.77083V7.62822C5.40234 7.92973 5.74948 8.3107 5.99976 8.77111C6.24992 9.23153 6.375 9.73144 6.375 10.2708C6.375 11.1553 6.06487 11.9077 5.4446 12.5279C4.82434 13.1482 4.07197 13.4583 3.1875 13.4583ZM2.47917 6.15701H3.89583V5.27159H3.1875V4.64507H3.89583V3.14659H3.1875V2.52007H3.89583V1.77083C3.89583 1.57014 3.82795 1.40191 3.69219 1.26615C3.55642 1.13038 3.38819 1.0625 3.1875 1.0625C2.98681 1.0625 2.81858 1.13038 2.68281 1.26615C2.54705 1.40191 2.47917 1.57014 2.47917 1.77083V6.15701Z" fill="#D64336"/>
</svg>
