<svg width="21" height="31" viewBox="0 0 21 31" fill="none" xmlns="http://www.w3.org/2000/svg">
<mask id="mask0_648_96" style="mask-type:alpha" maskUnits="userSpaceOnUse" x="1" y="0" width="18" height="17">
<rect x="18.793" width="16.8711" height="16.8711" transform="rotate(90 18.793 0)" fill="#D9D9D9"/>
</mask>
<g mask="url(#mask0_648_96)">
<path d="M6.14499 3.02759L6.14499 13.8423C6.14499 13.8964 6.16754 13.946 6.21265 13.991C6.25764 14.0361 6.3072 14.0586 6.36132 14.0586L12.9583 14.0586C13.0124 14.0586 13.062 14.0361 13.107 13.991C13.1521 13.946 13.1746 13.8964 13.1746 13.8423L13.1746 3.02759C13.1746 2.97346 13.1521 2.9239 13.107 2.87891C13.062 2.8338 13.0124 2.81125 12.9583 2.81125L6.36132 2.81125C6.3072 2.81125 6.25764 2.8338 6.21265 2.87891C6.16754 2.9239 6.14499 2.97346 6.14499 3.02759ZM5.08567 3.71505L5.09054 3.68995L5.09054 3.02759C5.09054 2.67247 5.21356 2.3719 5.4596 2.12586C5.70564 1.87982 6.00621 1.7568 6.36132 1.75681L12.9583 1.75681C13.3134 1.75681 13.614 1.87982 13.86 2.12586C14.106 2.3719 14.2291 2.67247 14.2291 3.02759L14.2291 3.68995L15.635 3.68995L15.635 4.7444L14.2291 4.74439L14.2291 7.90773L15.635 7.90773L15.635 8.96217L14.2291 8.96217L14.2291 12.1255L15.635 12.1255L15.635 13.1799L14.2291 13.1799L14.2291 13.8423C14.2291 14.1974 14.106 14.498 13.86 14.744C13.614 14.9901 13.3134 15.1131 12.9583 15.1131L6.36132 15.1131C6.00621 15.1131 5.70564 14.9901 5.4596 14.744C5.21356 14.498 5.09054 14.1974 5.09054 13.8423L5.09054 13.1799L5.09054 12.1255L5.09054 8.96217L5.09054 7.90772L5.09054 4.74439L5.08567 4.7695L5.08567 3.71505Z" fill="#60DD68"/>
</g>
<path d="M3.972 29.0151C3.38 29.0151 2.844 28.8991 2.364 28.6671C1.884 28.4271 1.5 28.0671 1.212 27.5871C0.932 27.0991 0.792 26.4791 0.792 25.7271V20.4711H1.992V25.7391C1.992 26.2431 2.076 26.6591 2.244 26.9871C2.412 27.3071 2.644 27.5471 2.94 27.7071C3.244 27.8591 3.596 27.9351 3.996 27.9351C4.404 27.9351 4.752 27.8591 5.04 27.7071C5.336 27.5471 5.564 27.3071 5.724 26.9871C5.892 26.6591 5.976 26.2431 5.976 25.7391V20.4711H7.176V25.7271C7.176 26.4791 7.032 27.0991 6.744 27.5871C6.456 28.0671 6.068 28.4271 5.58 28.6671C5.1 28.8991 4.564 29.0151 3.972 29.0151ZM8.85675 28.8711V20.4711H11.7128C12.3848 20.4711 12.9368 20.5831 13.3688 20.8071C13.8088 21.0311 14.1328 21.3351 14.3408 21.7191C14.5488 22.0951 14.6528 22.5271 14.6528 23.0151C14.6528 23.4791 14.5488 23.9031 14.3408 24.2871C14.1328 24.6711 13.8128 24.9791 13.3808 25.2111C12.9488 25.4351 12.3928 25.5471 11.7128 25.5471H10.0568V28.8711H8.85675ZM10.0568 24.5511H11.6648C12.3048 24.5511 12.7568 24.4111 13.0208 24.1311C13.2928 23.8511 13.4288 23.4791 13.4288 23.0151C13.4288 22.5271 13.2928 22.1471 13.0208 21.8751C12.7568 21.6031 12.3048 21.4671 11.6648 21.4671H10.0568V24.5511ZM17.062 28.8711V21.8271L15.49 22.2831V21.3471L17.506 20.4711H18.286V28.8711H17.062Z" fill="#EFEFEF"/>
</svg>
