<svg width="24" height="36" viewBox="0 0 24 36" fill="none" xmlns="http://www.w3.org/2000/svg">
<path d="M2.26799 35.6445L-5.11855e-06 27.2445H1.28399L2.988 34.2405L4.94399 27.2445H6.276L8.17199 34.2645L9.9 27.2445H11.184L8.856 35.6445H7.464L5.58 28.9605L3.648 35.6445H2.26799ZM12.3882 35.6445V27.2445H13.5882V35.6445H12.3882ZM15.3648 35.6445V27.2445H20.5968V28.2285H16.5648V30.9525H19.9368V31.9125H16.5648V35.6445H15.3648ZM21.8921 35.6445V27.2445H23.0921V35.6445H21.8921Z" fill="#F8FEF9"/>
<path d="M22.0388 3.57231C22.0388 2.82908 21.4625 2.22656 20.7515 2.22656C20.0406 2.22656 19.4643 2.82908 19.4643 3.57231V21.9642H22.0388V3.57231Z" fill="#60DD68"/>
<path d="M16.4607 6.10063C17.1716 6.10063 17.748 6.70315 17.748 7.44638V21.9642H15.1735V7.44638C15.1735 6.70315 15.7498 6.10063 16.4607 6.10063Z" fill="#60DD68"/>
<path d="M13.4571 11.3207C13.4571 10.5774 12.8808 9.97493 12.1699 9.97493C11.459 9.97493 10.8826 10.5774 10.8826 11.3207V21.9643H13.4571V11.3207Z" fill="#60DD68"/>
<path d="M7.87906 13.0741C8.58999 13.0741 9.16631 13.6766 9.16631 14.4198V21.9642H6.59182V14.4198C6.59182 13.6766 7.16814 13.0741 7.87906 13.0741Z" fill="#60DD68"/>
<path d="M3.58824 16.1734C4.29917 16.1734 4.87549 16.7759 4.87549 17.5191V21.9642H2.30099V17.5191C2.30099 16.7759 2.87731 16.1734 3.58824 16.1734Z" fill="#60DD68"/>
</svg>
